<mxfile host="app.diagrams.net" agent="Mozilla/5.0 (Macintosh; Intel Mac OS X 10_15_7) AppleWebKit/537.36 (KHTML, like Gecko) Chrome/139.0.0.0 Safari/537.36 Edg/139.0.0.0" version="26.2.14">
  <diagram name="Page-1" id="mTRPaGfIs2r68YaqRrBq">
    <mxGraphModel dx="967" dy="656" grid="1" gridSize="10" guides="1" tooltips="1" connect="1" arrows="1" fold="1" page="1" pageScale="1" pageWidth="827" pageHeight="1169" math="0" shadow="0">
      <root>
        <mxCell id="0" />
        <mxCell id="1" parent="0" />
        <mxCell id="a5m-hGnALrJPA8emmWYi-24" value="" style="rounded=0;whiteSpace=wrap;html=1;strokeColor=none;fillColor=light-dark(#fafafa, #ededed);" vertex="1" parent="1">
          <mxGeometry x="80" y="70" width="520" height="250" as="geometry" />
        </mxCell>
        <mxCell id="a5m-hGnALrJPA8emmWYi-1" value="" style="rounded=0;whiteSpace=wrap;html=1;fillColor=default;" vertex="1" parent="1">
          <mxGeometry x="120" y="120" width="320" height="160" as="geometry" />
        </mxCell>
        <mxCell id="a5m-hGnALrJPA8emmWYi-3" value="Global memory" style="text;html=1;align=left;verticalAlign=bottom;whiteSpace=wrap;rounded=0;fontStyle=1;fontColor=default;" vertex="1" parent="1">
          <mxGeometry x="120" y="90" width="100" height="30" as="geometry" />
        </mxCell>
        <mxCell id="a5m-hGnALrJPA8emmWYi-4" value="" style="rounded=0;whiteSpace=wrap;html=1;fillColor=#CCE5FF;strokeColor=none;" vertex="1" parent="1">
          <mxGeometry x="200" y="160" width="80" height="10" as="geometry" />
        </mxCell>
        <mxCell id="a5m-hGnALrJPA8emmWYi-5" value="" style="rounded=0;whiteSpace=wrap;html=1;fillColor=#99CCFF;strokeColor=none;" vertex="1" parent="1">
          <mxGeometry x="200" y="170" width="80" height="10" as="geometry" />
        </mxCell>
        <mxCell id="a5m-hGnALrJPA8emmWYi-6" value="" style="rounded=0;whiteSpace=wrap;html=1;fillColor=#66B2FF;strokeColor=none;" vertex="1" parent="1">
          <mxGeometry x="200" y="180" width="80" height="10" as="geometry" />
        </mxCell>
        <mxCell id="a5m-hGnALrJPA8emmWYi-7" value="" style="rounded=0;whiteSpace=wrap;html=1;fillColor=#3399FF;strokeColor=none;" vertex="1" parent="1">
          <mxGeometry x="200" y="190" width="80" height="10" as="geometry" />
        </mxCell>
        <mxCell id="a5m-hGnALrJPA8emmWYi-8" value="" style="rounded=0;whiteSpace=wrap;html=1;fillColor=none;" vertex="1" parent="1">
          <mxGeometry x="200" y="160" width="80" height="40" as="geometry" />
        </mxCell>
        <mxCell id="a5m-hGnALrJPA8emmWYi-12" value="" style="rounded=0;whiteSpace=wrap;html=1;fillColor=#CCE5FF;strokeColor=none;" vertex="1" parent="1">
          <mxGeometry x="480" y="120" width="80" height="10" as="geometry" />
        </mxCell>
        <mxCell id="a5m-hGnALrJPA8emmWYi-13" value="" style="rounded=0;whiteSpace=wrap;html=1;fillColor=#99CCFF;strokeColor=none;" vertex="1" parent="1">
          <mxGeometry x="480" y="130" width="80" height="10" as="geometry" />
        </mxCell>
        <mxCell id="a5m-hGnALrJPA8emmWYi-14" value="" style="rounded=0;whiteSpace=wrap;html=1;fillColor=#66B2FF;strokeColor=none;" vertex="1" parent="1">
          <mxGeometry x="480" y="140" width="80" height="10" as="geometry" />
        </mxCell>
        <mxCell id="a5m-hGnALrJPA8emmWYi-15" value="" style="rounded=0;whiteSpace=wrap;html=1;fillColor=#3399FF;strokeColor=none;" vertex="1" parent="1">
          <mxGeometry x="480" y="150" width="80" height="10" as="geometry" />
        </mxCell>
        <mxCell id="a5m-hGnALrJPA8emmWYi-16" value="" style="rounded=0;whiteSpace=wrap;html=1;fillColor=none;" vertex="1" parent="1">
          <mxGeometry x="480" y="120" width="80" height="40" as="geometry" />
        </mxCell>
        <mxCell id="a5m-hGnALrJPA8emmWYi-17" value="Shared memory" style="text;html=1;align=left;verticalAlign=bottom;whiteSpace=wrap;rounded=0;fontStyle=1;fontColor=default;" vertex="1" parent="1">
          <mxGeometry x="480" y="90" width="100" height="30" as="geometry" />
        </mxCell>
        <mxCell id="a5m-hGnALrJPA8emmWYi-18" value="WIDTH" style="text;html=1;align=center;verticalAlign=bottom;whiteSpace=wrap;rounded=0;fontStyle=0;fontSize=10;" vertex="1" parent="1">
          <mxGeometry x="200" y="140" width="80" height="20" as="geometry" />
        </mxCell>
        <mxCell id="a5m-hGnALrJPA8emmWYi-19" value="HEIGHT" style="text;html=1;align=right;verticalAlign=bottom;whiteSpace=wrap;rounded=0;fontStyle=0;fontSize=10;" vertex="1" parent="1">
          <mxGeometry x="140" y="170" width="60" height="20" as="geometry" />
        </mxCell>
        <mxCell id="a5m-hGnALrJPA8emmWYi-21" value="" style="endArrow=classic;html=1;rounded=0;exitX=1;exitY=0.5;exitDx=0;exitDy=0;entryX=0;entryY=0.5;entryDx=0;entryDy=0;strokeWidth=2;" edge="1" parent="1" source="a5m-hGnALrJPA8emmWYi-8" target="a5m-hGnALrJPA8emmWYi-16">
          <mxGeometry width="50" height="50" relative="1" as="geometry">
            <mxPoint x="280" y="190" as="sourcePoint" />
            <mxPoint x="330" y="140" as="targetPoint" />
          </mxGeometry>
        </mxCell>
        <mxCell id="a5m-hGnALrJPA8emmWYi-22" value="" style="endArrow=classic;startArrow=classic;html=1;rounded=0;exitX=0;exitY=0.75;exitDx=0;exitDy=0;entryX=1;entryY=0.75;entryDx=0;entryDy=0;strokeWidth=1;" edge="1" parent="1" source="a5m-hGnALrJPA8emmWYi-1" target="a5m-hGnALrJPA8emmWYi-1">
          <mxGeometry width="50" height="50" relative="1" as="geometry">
            <mxPoint x="240" y="265" as="sourcePoint" />
            <mxPoint x="290" y="215" as="targetPoint" />
          </mxGeometry>
        </mxCell>
        <mxCell id="a5m-hGnALrJPA8emmWYi-23" value="src_stride" style="text;html=1;align=center;verticalAlign=bottom;whiteSpace=wrap;rounded=0;fontStyle=0;fontSize=10;" vertex="1" parent="1">
          <mxGeometry x="250" y="220" width="60" height="20" as="geometry" />
        </mxCell>
      </root>
    </mxGraphModel>
  </diagram>
</mxfile>
